<svg xmlns="http://www.w3.org/2000/svg" viewBox="0 0 1280 560" width="1280" height="560" role="img" aria-labelledby="t d">
<title id="t">clodfarm</title><desc id="d">A night-time farm: rows of glowing terminal sprouts are Claude Code agents at work, a barn and a silo hold the task queue, and the moon is a budget gauge showing the 5-hour and weekly usage windows.</desc>
<style>
  .sp .glow, .sp .head, .sp .cur { animation-iteration-count: infinite; animation-timing-function: ease-in-out; }
  .on .glow { animation-name: breathe; } .on .head { fill: #2A150F; stroke: #F09A6E; animation-name: headOn; } .on .cur { fill: #FFE2CF; }
  .off .glow { opacity: 0; animation-name: wake; } .off .head { fill: #14231C; stroke: #5E8A6E; animation-name: headWake; }
  .off .cur { fill: #8DB59A; animation-name: curWake; }
  @keyframes breathe { 0%, 100% { opacity: .45 } 50% { opacity: 1 } }
  @keyframes headOn { 0%, 100% { stroke: #E8875B } 50% { stroke: #FFC39F } }
  @keyframes wake { 0%, 62%, 100% { opacity: 0 } 74% { opacity: .95 } 86% { opacity: .5 } }
  @keyframes headWake { 0%, 62%, 100% { stroke: #5E8A6E; fill: #14231C } 74% { stroke: #F09A6E; fill: #2A150F } }
  @keyframes curWake { 0%, 62%, 100% { fill: #8DB59A } 74% { fill: #FFE2CF } }
  @media (prefers-reduced-motion: reduce) { .sp .glow, .sp .head, .sp .cur { animation: none; } .off .glow { opacity: 0; } }
</style>
<defs>
<linearGradient id="sky" x1="0" y1="0" x2="0" y2="1"><stop offset="0" stop-color="#070B1C"/><stop offset=".55" stop-color="#141B3D"/><stop offset="1" stop-color="#3B2A4A"/></linearGradient>
<linearGradient id="hillB" x1="0" y1="0" x2="0" y2="1"><stop offset="0" stop-color="#1D2B3F"/><stop offset="1" stop-color="#131D2C"/></linearGradient>
<linearGradient id="field" x1="0" y1="0" x2="0" y2="1"><stop offset="0" stop-color="#16271F"/><stop offset="1" stop-color="#0C1712"/></linearGradient>
<radialGradient id="moonGlow" cx=".5" cy=".5" r=".5"><stop offset="0" stop-color="#F6D7B0" stop-opacity=".35"/><stop offset="1" stop-color="#F6D7B0" stop-opacity="0"/></radialGradient>
<radialGradient id="winGlow" cx=".5" cy=".5" r=".5"><stop offset="0" stop-color="#FFB86B" stop-opacity=".55"/><stop offset="1" stop-color="#FFB86B" stop-opacity="0"/></radialGradient>
<radialGradient id="sproutGlow" cx=".5" cy=".5" r=".5"><stop offset="0" stop-color="#F09A6E" stop-opacity=".75"/><stop offset="1" stop-color="#E8875B" stop-opacity="0"/></radialGradient>
<clipPath id="card"><rect width="1280" height="560" rx="28"/></clipPath>
</defs>
<g clip-path="url(#card)">
<rect width="1280" height="560" fill="url(#sky)"/>
<circle cx="415" cy="38" r="0.6" fill="#fff" opacity="0.30"/>
<circle cx="686" cy="91" r="0.6" fill="#fff" opacity="0.84"/>
<circle cx="275" cy="21" r="1.3" fill="#fff" opacity="0.30"/>
<circle cx="116" cy="106" r="1.7" fill="#fff" opacity="0.33"/>
<circle cx="286" cy="157" r="0.6" fill="#fff" opacity="0.63"/>
<circle cx="508" cy="244" r="0.6" fill="#fff" opacity="0.61"/>
<circle cx="170" cy="105" r="1.7" fill="#fff" opacity="0.33"/>
<circle cx="395" cy="204" r="0.8" fill="#fff" opacity="0.32"/>
<circle cx="731" cy="47" r="0.6" fill="#fff" opacity="0.61"/>
<circle cx="80" cy="15" r="0.8" fill="#fff" opacity="0.57"/>
<circle cx="681" cy="194" r="1.3" fill="#fff" opacity="0.63"/>
<circle cx="580" cy="75" r="0.8" fill="#fff" opacity="0.70"/>
<circle cx="312" cy="144" r="1.7" fill="#fff" opacity="0.57"/>
<circle cx="440" cy="112" r="1.7" fill="#fff" opacity="0.89"/>
<circle cx="151" cy="105" r="1" fill="#fff" opacity="0.35"/>
<circle cx="626" cy="10" r="0.6" fill="#fff" opacity="0.75"/>
<circle cx="733" cy="219" r="1" fill="#fff" opacity="0.47"/>
<circle cx="448" cy="124" r="1.3" fill="#fff" opacity="0.29"/>
<circle cx="120" cy="67" r="0.6" fill="#fff" opacity="0.29"/>
<circle cx="898" cy="162" r="1.3" fill="#fff" opacity="0.43"/>
<circle cx="494" cy="167" r="0.6" fill="#fff" opacity="0.86"/>
<circle cx="455" cy="153" r="1.3" fill="#fff" opacity="0.29"/>
<circle cx="983" cy="32" r="0.8" fill="#fff" opacity="0.51"/>
<circle cx="1174" cy="124" r="0.8" fill="#fff" opacity="0.54"/>
<circle cx="703" cy="221" r="1.3" fill="#fff" opacity="0.81"/>
<circle cx="356" cy="104" r="1" fill="#fff" opacity="0.69"/>
<circle cx="487" cy="58" r="0.6" fill="#fff" opacity="0.36"/>
<circle cx="297" cy="58" r="1.3" fill="#fff" opacity="0.79"/>
<circle cx="233" cy="70" r="0.8" fill="#fff" opacity="0.52"/>
<circle cx="473" cy="142" r="0.8" fill="#fff" opacity="0.70"/>
<circle cx="660" cy="154" r="0.6" fill="#fff" opacity="0.55"/>
<circle cx="1115" cy="238" r="1.7" fill="#fff" opacity="0.51"/>
<circle cx="511" cy="26" r="1.3" fill="#fff" opacity="0.29"/>
<circle cx="86" cy="52" r="0.8" fill="#fff" opacity="0.32"/>
<circle cx="769" cy="26" r="1.7" fill="#fff" opacity="0.35"/>
<circle cx="130" cy="91" r="0.6" fill="#fff" opacity="0.30"/>
<circle cx="266" cy="94" r="1" fill="#fff" opacity="0.87"/>
<circle cx="771" cy="119" r="0.6" fill="#fff" opacity="0.80"/>
<circle cx="1271" cy="116" r="1.3" fill="#fff" opacity="0.45"/>
<circle cx="184" cy="187" r="1" fill="#fff" opacity="0.56"/>
<circle cx="886" cy="129" r="0.8" fill="#fff" opacity="0.87"/>
<circle cx="676" cy="37" r="1.7" fill="#fff" opacity="0.84"/>
<circle cx="970" cy="75" r="0.6" fill="#fff" opacity="0.70"/>
<circle cx="334" cy="92" r="0.8" fill="#fff" opacity="0.48"/>
<circle cx="285" cy="135" r="1.7" fill="#fff" opacity="0.46"/>
<circle cx="285" cy="203" r="0.8" fill="#fff" opacity="0.77"/>
<circle cx="1047" cy="185" r="0.8" fill="#fff" opacity="0.38"/>
<circle cx="631" cy="183" r="0.6" fill="#fff" opacity="0.76"/>
<circle cx="604" cy="48" r="1.7" fill="#fff" opacity="0.87"/>
<circle cx="572" cy="234" r="1" fill="#fff" opacity="0.87"/>
<circle cx="467" cy="55" r="0.8" fill="#fff" opacity="0.56"/>
<circle cx="432" cy="121" r="1.7" fill="#fff" opacity="0.80"/>
<circle cx="614" cy="163" r="0.6" fill="#fff" opacity="0.79"/>
<circle cx="153" cy="97" r="0.8" fill="#fff" opacity="0.56"/>
<circle cx="229" cy="197" r="1" fill="#fff" opacity="0.31"/>
<circle cx="1211" cy="180" r="1.3" fill="#fff" opacity="0.51"/>
<circle cx="1212" cy="181" r="0.8" fill="#fff" opacity="0.90"/>
<circle cx="35" cy="148" r="1.3" fill="#fff" opacity="0.77"/>
<circle cx="187" cy="207" r="1.3" fill="#fff" opacity="0.68"/>
<circle cx="449" cy="137" r="0.8" fill="#fff" opacity="0.26"/>
<circle cx="1023" cy="182" r="0.6" fill="#fff" opacity="0.59"/>
<circle cx="1195" cy="108" r="0.8" fill="#fff" opacity="0.79"/>
<circle cx="270" cy="63" r="1" fill="#fff" opacity="0.58"/>
<circle cx="978" cy="81" r="1.7" fill="#fff" opacity="0.52"/>
<circle cx="168" cy="228" r="1" fill="#fff" opacity="0.83"/>
<circle cx="848" cy="204" r="1.7" fill="#fff" opacity="0.52"/>
<circle cx="1175" cy="125" r="1.7" fill="#fff" opacity="0.35"/>
<circle cx="654" cy="218" r="0.8" fill="#fff" opacity="0.65"/>
<circle cx="993" cy="37" r="0.8" fill="#fff" opacity="0.56"/>
<circle cx="928" cy="139" r="1" fill="#fff" opacity="0.69"/>
<circle cx="679" cy="121" r="0.6" fill="#fff" opacity="0.82"/>
<circle cx="73" cy="48" r="0.6" fill="#fff" opacity="0.75"/>
<circle cx="650" cy="140" r="0.6" fill="#fff" opacity="0.54"/>
<circle cx="784" cy="126" r="1.7" fill="#fff" opacity="0.38"/>
<circle cx="355" cy="127" r="1.3" fill="#fff" opacity="0.58"/>
<circle cx="317" cy="131" r="1" fill="#fff" opacity="0.85"/>
<circle cx="1143" cy="51" r="1.3" fill="#fff" opacity="0.34"/>
<circle cx="156" cy="111" r="0.6" fill="#fff" opacity="0.69"/>
<circle cx="548" cy="53" r="1" fill="#fff" opacity="0.76"/>
<circle cx="1148" cy="39" r="1" fill="#fff" opacity="0.34"/>
<circle cx="1130" cy="242" r="0.8" fill="#fff" opacity="0.74"/>
<circle cx="120" cy="221" r="0.8" fill="#fff" opacity="0.89"/>
<circle cx="1066" cy="40" r="1.3" fill="#fff" opacity="0.90"/>
<circle cx="517" cy="105" r="1" fill="#fff" opacity="0.46"/>
<circle cx="924" cy="5" r="1.7" fill="#fff" opacity="0.55"/>
<circle cx="900" cy="96" r="1.7" fill="#fff" opacity="0.66"/>
<circle cx="656" cy="16" r="0.8" fill="#fff" opacity="0.88"/>
<circle cx="134" cy="66" r="0.6" fill="#fff" opacity="0.84"/>
<circle cx="232" cy="189" r="1.3" fill="#fff" opacity="0.80"/>
<circle cx="865" cy="237" r="1.3" fill="#fff" opacity="0.35"/>
<circle cx="1040" cy="122" r="120" fill="url(#moonGlow)"/>
<circle cx="1040" cy="122" r="46" fill="#F3E3C7"/><circle cx="1026" cy="112" r="7" fill="#E4CFAE"/><circle cx="1052" cy="136" r="5" fill="#E4CFAE"/><circle cx="1056" cy="106" r="3.5" fill="#E4CFAE"/>
<circle cx="1040" cy="122" r="62" fill="none" stroke="#ffffff" stroke-opacity=".12" stroke-width="6"/>
<path d="M1040.0,60.0 A62,62 0 0 1 1073.2,174.3" fill="none" stroke="#E8875B" stroke-width="6" stroke-linecap="round"/>
<circle cx="1040" cy="122" r="76" fill="none" stroke="#ffffff" stroke-opacity=".12" stroke-width="6"/>
<path d="M1040.0,46.0 A76,76 0 0 1 1092.0,177.4" fill="none" stroke="#F2C14E" stroke-width="6" stroke-linecap="round"/>
<text x="1132" y="84" font-family="ui-monospace,SFMono-Regular,Menlo,monospace" font-size="13" fill="#F2C14E" opacity=".95">7-day  38%</text>
<text x="1132" y="104" font-family="ui-monospace,SFMono-Regular,Menlo,monospace" font-size="13" fill="#E8875B" opacity=".95">5-hour 41%</text>
<path d="M0,330 C160,280 300,300 430,285 C560,270 690,305 820,290 C960,274 1100,300 1280,280 L1280,560 L0,560 Z" fill="url(#hillB)"/>
<path d="M0,370 C200,340 380,352 560,340 C760,328 980,360 1280,338 L1280,560 L0,560 Z" fill="#17263A"/>
<g transform="translate(760,250)">
<circle cx="70" cy="70" r="120" fill="url(#winGlow)" opacity=".55"/>
<rect x="150" y="-6" width="46" height="120" rx="8" fill="#8A93A6"/><path d="M150,-6 Q173,-40 196,-6 Z" fill="#6E7689"/>
<g stroke="#6E7689" stroke-width="2"><line x1="150" y1="20" x2="196" y2="20"/><line x1="150" y1="44" x2="196" y2="44"/><line x1="150" y1="68" x2="196" y2="68"/><line x1="150" y1="92" x2="196" y2="92"/></g>
<path d="M0,40 L70,-18 L140,40 L140,114 L0,114 Z" fill="#B5523B"/>
<path d="M-8,44 L70,-26 L148,44" fill="none" stroke="#F3E3C7" stroke-width="7" stroke-linejoin="round"/>
<rect x="46" y="58" width="48" height="56" fill="#7C3526"/>
<path d="M46,58 L94,114 M94,58 L46,114" stroke="#F3E3C7" stroke-width="4"/>
<rect x="46" y="58" width="48" height="56" fill="none" stroke="#F3E3C7" stroke-width="4"/>
<rect x="58" y="12" width="24" height="22" rx="3" fill="#FFC27A"/>
<path d="M70,12 V34 M58,23 H82" stroke="#B5523B" stroke-width="2.5"/>
</g>
<g transform="translate(640,236) rotate(-8)">
<rect x="0" y="0" width="44" height="78" rx="9" fill="#0E1428" stroke="#9AA6C8" stroke-width="3"/>
<rect x="6" y="10" width="32" height="52" rx="3" fill="#1E2A52"/>
<text x="22" y="42" text-anchor="middle" font-family="ui-monospace,Menlo,monospace" font-size="16" fill="#E8875B">✳</text>
<circle cx="22" cy="69" r="3" fill="#9AA6C8"/>
</g>
<path d="M690,278 C720,270 745,268 770,280" fill="none" stroke="#9AA6C8" stroke-width="2" stroke-dasharray="3 8" stroke-linecap="round" opacity=".8"/>
<path d="M702,244 a10,10 0 0 1 9,9" fill="none" stroke="#9AA6C8" stroke-width="2" opacity="0.90"/>
<path d="M704,236 a18,18 0 0 1 16,16" fill="none" stroke="#9AA6C8" stroke-width="2" opacity="0.65"/>
<path d="M705,228 a26,26 0 0 1 23,23" fill="none" stroke="#9AA6C8" stroke-width="2" opacity="0.40"/>
<path d="M0,410 C240,392 520,398 760,392 C980,386 1140,398 1280,392 L1280,560 L0,560 Z" fill="url(#field)"/>
<line x1="527" y1="396" x2="-300" y2="600" stroke="#223A2B" stroke-width="2"/>
<line x1="552" y1="396" x2="-91" y2="600" stroke="#223A2B" stroke-width="2"/>
<line x1="577" y1="396" x2="118" y2="600" stroke="#223A2B" stroke-width="2"/>
<line x1="602" y1="396" x2="327" y2="600" stroke="#223A2B" stroke-width="2"/>
<line x1="627" y1="396" x2="536" y2="600" stroke="#223A2B" stroke-width="2"/>
<line x1="653" y1="396" x2="744" y2="600" stroke="#223A2B" stroke-width="2"/>
<line x1="678" y1="396" x2="953" y2="600" stroke="#223A2B" stroke-width="2"/>
<line x1="703" y1="396" x2="1162" y2="600" stroke="#223A2B" stroke-width="2"/>
<line x1="728" y1="396" x2="1371" y2="600" stroke="#223A2B" stroke-width="2"/>
<line x1="753" y1="396" x2="1580" y2="600" stroke="#223A2B" stroke-width="2"/>
<g class="sp off" style="animation-duration:8.42s;animation-delay:-5.90s"><circle class="glow" cx="424" cy="420.2" r="28.0" fill="url(#sproutGlow)" style="animation-duration:8.42s;animation-delay:-5.90s"/><path d="M424,440 C424,433.4 424,430.1 424,426.8" stroke="#5FA56B" stroke-width="2.0" fill="none"/><path d="M424,435.1 C415.8,431.8 412.4,436.7 410.8,438.4 C417.4,440.0 421.5,438.4 424,435.1 Z" fill="#6DB879"/><path d="M424,432.6 C432.2,428.4 435.6,433.4 438.0,435.1 C431.4,437.5 426.5,435.9 424,432.6 Z" fill="#6DB879"/><rect class="head" x="413.3" y="411.1" width="21.4" height="15.7" rx="3.3" stroke-width="1.4" style="animation-duration:8.42s;animation-delay:-5.90s"/><text class="cur" x="416.6" y="422.4" font-family="ui-monospace,Menlo,monospace" font-size="8.2" style="animation-duration:8.42s;animation-delay:-5.90s">&gt;_</text></g>
<g class="sp on" style="animation-duration:2.82s;animation-delay:-1.94s"><circle class="glow" cx="478" cy="420.2" r="28.0" fill="url(#sproutGlow)" style="animation-duration:2.82s;animation-delay:-1.94s"/><path d="M478,440 C478,433.4 478,430.1 478,426.8" stroke="#5FA56B" stroke-width="2.0" fill="none"/><path d="M478,435.1 C469.8,431.8 466.4,436.7 464.8,438.4 C471.4,440.0 475.5,438.4 478,435.1 Z" fill="#6DB879"/><path d="M478,432.6 C486.2,428.4 489.6,433.4 492.0,435.1 C485.4,437.5 480.5,435.9 478,432.6 Z" fill="#6DB879"/><rect class="head" x="467.3" y="411.1" width="21.4" height="15.7" rx="3.3" stroke-width="1.4" style="animation-duration:2.82s;animation-delay:-1.94s"/><text class="cur" x="470.6" y="422.4" font-family="ui-monospace,Menlo,monospace" font-size="8.2" style="animation-duration:2.82s;animation-delay:-1.94s">&gt;_</text></g>
<g class="sp on" style="animation-duration:2.88s;animation-delay:-2.70s"><circle class="glow" cx="532" cy="420.2" r="28.0" fill="url(#sproutGlow)" style="animation-duration:2.88s;animation-delay:-2.70s"/><path d="M532,440 C532,433.4 532,430.1 532,426.8" stroke="#5FA56B" stroke-width="2.0" fill="none"/><path d="M532,435.1 C523.8,431.8 520.5,436.7 518.8,438.4 C525.4,440.0 529.5,438.4 532,435.1 Z" fill="#6DB879"/><path d="M532,432.6 C540.2,428.4 543.5,433.4 546.0,435.1 C539.4,437.5 534.5,435.9 532,432.6 Z" fill="#6DB879"/><rect class="head" x="521.3" y="411.1" width="21.4" height="15.7" rx="3.3" stroke-width="1.4" style="animation-duration:2.88s;animation-delay:-2.70s"/><text class="cur" x="524.6" y="422.4" font-family="ui-monospace,Menlo,monospace" font-size="8.2" style="animation-duration:2.88s;animation-delay:-2.70s">&gt;_</text></g>
<g class="sp off" style="animation-duration:9.81s;animation-delay:-0.82s"><circle class="glow" cx="586" cy="420.2" r="28.0" fill="url(#sproutGlow)" style="animation-duration:9.81s;animation-delay:-0.82s"/><path d="M586,440 C586,433.4 586,430.1 586,426.8" stroke="#5FA56B" stroke-width="2.0" fill="none"/><path d="M586,435.1 C577.8,431.8 574.5,436.7 572.8,438.4 C579.4,440.0 583.5,438.4 586,435.1 Z" fill="#6DB879"/><path d="M586,432.6 C594.2,428.4 597.5,433.4 600.0,435.1 C593.4,437.5 588.5,435.9 586,432.6 Z" fill="#6DB879"/><rect class="head" x="575.3" y="411.1" width="21.4" height="15.7" rx="3.3" stroke-width="1.4" style="animation-duration:9.81s;animation-delay:-0.82s"/><text class="cur" x="578.6" y="422.4" font-family="ui-monospace,Menlo,monospace" font-size="8.2" style="animation-duration:9.81s;animation-delay:-0.82s">&gt;_</text></g>
<g class="sp off" style="animation-duration:5.40s;animation-delay:-4.66s"><circle class="glow" cx="640" cy="420.2" r="28.0" fill="url(#sproutGlow)" style="animation-duration:5.40s;animation-delay:-4.66s"/><path d="M640,440 C640,433.4 640,430.1 640,426.8" stroke="#5FA56B" stroke-width="2.0" fill="none"/><path d="M640,435.1 C631.8,431.8 628.5,436.7 626.8,438.4 C633.4,440.0 637.5,438.4 640,435.1 Z" fill="#6DB879"/><path d="M640,432.6 C648.2,428.4 651.5,433.4 654.0,435.1 C647.4,437.5 642.5,435.9 640,432.6 Z" fill="#6DB879"/><rect class="head" x="629.3" y="411.1" width="21.4" height="15.7" rx="3.3" stroke-width="1.4" style="animation-duration:5.40s;animation-delay:-4.66s"/><text class="cur" x="632.6" y="422.4" font-family="ui-monospace,Menlo,monospace" font-size="8.2" style="animation-duration:5.40s;animation-delay:-4.66s">&gt;_</text></g>
<g class="sp on" style="animation-duration:3.92s;animation-delay:-2.17s"><circle class="glow" cx="694" cy="420.2" r="28.0" fill="url(#sproutGlow)" style="animation-duration:3.92s;animation-delay:-2.17s"/><path d="M694,440 C694,433.4 694,430.1 694,426.8" stroke="#5FA56B" stroke-width="2.0" fill="none"/><path d="M694,435.1 C685.8,431.8 682.5,436.7 680.8,438.4 C687.4,440.0 691.5,438.4 694,435.1 Z" fill="#6DB879"/><path d="M694,432.6 C702.2,428.4 705.5,433.4 708.0,435.1 C701.4,437.5 696.5,435.9 694,432.6 Z" fill="#6DB879"/><rect class="head" x="683.3" y="411.1" width="21.4" height="15.7" rx="3.3" stroke-width="1.4" style="animation-duration:3.92s;animation-delay:-2.17s"/><text class="cur" x="686.6" y="422.4" font-family="ui-monospace,Menlo,monospace" font-size="8.2" style="animation-duration:3.92s;animation-delay:-2.17s">&gt;_</text></g>
<g class="sp off" style="animation-duration:6.61s;animation-delay:-0.85s"><circle class="glow" cx="748" cy="420.2" r="28.0" fill="url(#sproutGlow)" style="animation-duration:6.61s;animation-delay:-0.85s"/><path d="M748,440 C748,433.4 748,430.1 748,426.8" stroke="#5FA56B" stroke-width="2.0" fill="none"/><path d="M748,435.1 C739.8,431.8 736.5,436.7 734.8,438.4 C741.4,440.0 745.5,438.4 748,435.1 Z" fill="#6DB879"/><path d="M748,432.6 C756.2,428.4 759.5,433.4 762.0,435.1 C755.4,437.5 750.5,435.9 748,432.6 Z" fill="#6DB879"/><rect class="head" x="737.3" y="411.1" width="21.4" height="15.7" rx="3.3" stroke-width="1.4" style="animation-duration:6.61s;animation-delay:-0.85s"/><text class="cur" x="740.6" y="422.4" font-family="ui-monospace,Menlo,monospace" font-size="8.2" style="animation-duration:6.61s;animation-delay:-0.85s">&gt;_</text></g>
<g class="sp on" style="animation-duration:3.53s;animation-delay:-0.39s"><circle class="glow" cx="802" cy="420.2" r="28.0" fill="url(#sproutGlow)" style="animation-duration:3.53s;animation-delay:-0.39s"/><path d="M802,440 C802,433.4 802,430.1 802,426.8" stroke="#5FA56B" stroke-width="2.0" fill="none"/><path d="M802,435.1 C793.8,431.8 790.5,436.7 788.8,438.4 C795.4,440.0 799.5,438.4 802,435.1 Z" fill="#6DB879"/><path d="M802,432.6 C810.2,428.4 813.5,433.4 816.0,435.1 C809.4,437.5 804.5,435.9 802,432.6 Z" fill="#6DB879"/><rect class="head" x="791.3" y="411.1" width="21.4" height="15.7" rx="3.3" stroke-width="1.4" style="animation-duration:3.53s;animation-delay:-0.39s"/><text class="cur" x="794.6" y="422.4" font-family="ui-monospace,Menlo,monospace" font-size="8.2" style="animation-duration:3.53s;animation-delay:-0.39s">&gt;_</text></g>
<g class="sp on" style="animation-duration:2.80s;animation-delay:-0.56s"><circle class="glow" cx="856" cy="420.2" r="28.0" fill="url(#sproutGlow)" style="animation-duration:2.80s;animation-delay:-0.56s"/><path d="M856,440 C856,433.4 856,430.1 856,426.8" stroke="#5FA56B" stroke-width="2.0" fill="none"/><path d="M856,435.1 C847.8,431.8 844.5,436.7 842.8,438.4 C849.4,440.0 853.5,438.4 856,435.1 Z" fill="#6DB879"/><path d="M856,432.6 C864.2,428.4 867.5,433.4 870.0,435.1 C863.4,437.5 858.5,435.9 856,432.6 Z" fill="#6DB879"/><rect class="head" x="845.3" y="411.1" width="21.4" height="15.7" rx="3.3" stroke-width="1.4" style="animation-duration:2.80s;animation-delay:-0.56s"/><text class="cur" x="848.6" y="422.4" font-family="ui-monospace,Menlo,monospace" font-size="8.2" style="animation-duration:2.80s;animation-delay:-0.56s">&gt;_</text></g>
<g class="sp on" style="animation-duration:3.79s;animation-delay:-2.88s"><circle class="glow" cx="309" cy="440.6" r="33.2" fill="url(#sproutGlow)" style="animation-duration:3.79s;animation-delay:-2.88s"/><path d="M309,464 C309,456.2 309,452.3 309,448.4" stroke="#5FA56B" stroke-width="2.3" fill="none"/><path d="M309,458.1 C299.2,454.2 295.4,460.1 293.4,462.1 C301.2,464.0 306.1,462.1 309,458.1 Z" fill="#6DB879"/><path d="M309,455.2 C318.8,450.4 322.6,456.2 325.6,458.1 C317.8,461.1 311.9,459.1 309,455.2 Z" fill="#6DB879"/><rect class="head" x="296.3" y="429.9" width="25.4" height="18.5" rx="3.9" stroke-width="1.7" style="animation-duration:3.79s;animation-delay:-2.88s"/><text class="cur" x="300.2" y="443.2" font-family="ui-monospace,Menlo,monospace" font-size="9.8" style="animation-duration:3.79s;animation-delay:-2.88s">&gt;_</text></g>
<g class="sp on" style="animation-duration:4.55s;animation-delay:-0.81s"><circle class="glow" cx="392" cy="440.6" r="33.2" fill="url(#sproutGlow)" style="animation-duration:4.55s;animation-delay:-0.81s"/><path d="M392,464 C392,456.2 392,452.3 392,448.4" stroke="#5FA56B" stroke-width="2.3" fill="none"/><path d="M392,458.1 C382.2,454.2 378.4,460.1 376.4,462.1 C384.2,464.0 389.1,462.1 392,458.1 Z" fill="#6DB879"/><path d="M392,455.2 C401.8,450.4 405.6,456.2 408.6,458.1 C400.8,461.1 394.9,459.1 392,455.2 Z" fill="#6DB879"/><rect class="head" x="379.3" y="429.9" width="25.4" height="18.5" rx="3.9" stroke-width="1.7" style="animation-duration:4.55s;animation-delay:-0.81s"/><text class="cur" x="383.2" y="443.2" font-family="ui-monospace,Menlo,monospace" font-size="9.8" style="animation-duration:4.55s;animation-delay:-0.81s">&gt;_</text></g>
<g class="sp on" style="animation-duration:2.67s;animation-delay:-0.67s"><circle class="glow" cx="475" cy="440.6" r="33.2" fill="url(#sproutGlow)" style="animation-duration:2.67s;animation-delay:-0.67s"/><path d="M475,464 C475,456.2 475,452.3 475,448.4" stroke="#5FA56B" stroke-width="2.3" fill="none"/><path d="M475,458.1 C465.2,454.2 461.4,460.1 459.4,462.1 C467.2,464.0 472.1,462.1 475,458.1 Z" fill="#6DB879"/><path d="M475,455.2 C484.8,450.4 488.6,456.2 491.6,458.1 C483.8,461.1 477.9,459.1 475,455.2 Z" fill="#6DB879"/><rect class="head" x="462.3" y="429.9" width="25.4" height="18.5" rx="3.9" stroke-width="1.7" style="animation-duration:2.67s;animation-delay:-0.67s"/><text class="cur" x="466.2" y="443.2" font-family="ui-monospace,Menlo,monospace" font-size="9.8" style="animation-duration:2.67s;animation-delay:-0.67s">&gt;_</text></g>
<g class="sp on" style="animation-duration:5.46s;animation-delay:-3.01s"><circle class="glow" cx="557" cy="440.6" r="33.2" fill="url(#sproutGlow)" style="animation-duration:5.46s;animation-delay:-3.01s"/><path d="M557,464 C557,456.2 557,452.3 557,448.4" stroke="#5FA56B" stroke-width="2.3" fill="none"/><path d="M557,458.1 C547.2,454.2 543.4,460.1 541.4,462.1 C549.2,464.0 554.1,462.1 557,458.1 Z" fill="#6DB879"/><path d="M557,455.2 C566.8,450.4 570.6,456.2 573.6,458.1 C565.8,461.1 559.9,459.1 557,455.2 Z" fill="#6DB879"/><rect class="head" x="544.3" y="429.9" width="25.4" height="18.5" rx="3.9" stroke-width="1.7" style="animation-duration:5.46s;animation-delay:-3.01s"/><text class="cur" x="548.2" y="443.2" font-family="ui-monospace,Menlo,monospace" font-size="9.8" style="animation-duration:5.46s;animation-delay:-3.01s">&gt;_</text></g>
<g class="sp on" style="animation-duration:4.45s;animation-delay:-4.16s"><circle class="glow" cx="640" cy="440.6" r="33.2" fill="url(#sproutGlow)" style="animation-duration:4.45s;animation-delay:-4.16s"/><path d="M640,464 C640,456.2 640,452.3 640,448.4" stroke="#5FA56B" stroke-width="2.3" fill="none"/><path d="M640,458.1 C630.2,454.2 626.4,460.1 624.4,462.1 C632.2,464.0 637.1,462.1 640,458.1 Z" fill="#6DB879"/><path d="M640,455.2 C649.8,450.4 653.6,456.2 656.6,458.1 C648.8,461.1 642.9,459.1 640,455.2 Z" fill="#6DB879"/><rect class="head" x="627.3" y="429.9" width="25.4" height="18.5" rx="3.9" stroke-width="1.7" style="animation-duration:4.45s;animation-delay:-4.16s"/><text class="cur" x="631.2" y="443.2" font-family="ui-monospace,Menlo,monospace" font-size="9.8" style="animation-duration:4.45s;animation-delay:-4.16s">&gt;_</text></g>
<g class="sp on" style="animation-duration:5.79s;animation-delay:-2.50s"><circle class="glow" cx="723" cy="440.6" r="33.2" fill="url(#sproutGlow)" style="animation-duration:5.79s;animation-delay:-2.50s"/><path d="M723,464 C723,456.2 723,452.3 723,448.4" stroke="#5FA56B" stroke-width="2.3" fill="none"/><path d="M723,458.1 C713.2,454.2 709.4,460.1 707.4,462.1 C715.2,464.0 720.1,462.1 723,458.1 Z" fill="#6DB879"/><path d="M723,455.2 C732.8,450.4 736.6,456.2 739.6,458.1 C731.8,461.1 725.9,459.1 723,455.2 Z" fill="#6DB879"/><rect class="head" x="710.3" y="429.9" width="25.4" height="18.5" rx="3.9" stroke-width="1.7" style="animation-duration:5.79s;animation-delay:-2.50s"/><text class="cur" x="714.2" y="443.2" font-family="ui-monospace,Menlo,monospace" font-size="9.8" style="animation-duration:5.79s;animation-delay:-2.50s">&gt;_</text></g>
<g class="sp on" style="animation-duration:5.85s;animation-delay:-2.30s"><circle class="glow" cx="805" cy="440.6" r="33.2" fill="url(#sproutGlow)" style="animation-duration:5.85s;animation-delay:-2.30s"/><path d="M805,464 C805,456.2 805,452.3 805,448.4" stroke="#5FA56B" stroke-width="2.3" fill="none"/><path d="M805,458.1 C795.2,454.2 791.4,460.1 789.4,462.1 C797.2,464.0 802.1,462.1 805,458.1 Z" fill="#6DB879"/><path d="M805,455.2 C814.8,450.4 818.6,456.2 821.6,458.1 C813.8,461.1 807.9,459.1 805,455.2 Z" fill="#6DB879"/><rect class="head" x="792.3" y="429.9" width="25.4" height="18.5" rx="3.9" stroke-width="1.7" style="animation-duration:5.85s;animation-delay:-2.30s"/><text class="cur" x="796.2" y="443.2" font-family="ui-monospace,Menlo,monospace" font-size="9.8" style="animation-duration:5.85s;animation-delay:-2.30s">&gt;_</text></g>
<g class="sp on" style="animation-duration:5.28s;animation-delay:-5.19s"><circle class="glow" cx="888" cy="440.6" r="33.2" fill="url(#sproutGlow)" style="animation-duration:5.28s;animation-delay:-5.19s"/><path d="M888,464 C888,456.2 888,452.3 888,448.4" stroke="#5FA56B" stroke-width="2.3" fill="none"/><path d="M888,458.1 C878.2,454.2 874.4,460.1 872.4,462.1 C880.2,464.0 885.1,462.1 888,458.1 Z" fill="#6DB879"/><path d="M888,455.2 C897.8,450.4 901.6,456.2 904.6,458.1 C896.8,461.1 890.9,459.1 888,455.2 Z" fill="#6DB879"/><rect class="head" x="875.3" y="429.9" width="25.4" height="18.5" rx="3.9" stroke-width="1.7" style="animation-duration:5.28s;animation-delay:-5.19s"/><text class="cur" x="879.2" y="443.2" font-family="ui-monospace,Menlo,monospace" font-size="9.8" style="animation-duration:5.28s;animation-delay:-5.19s">&gt;_</text></g>
<g class="sp on" style="animation-duration:5.85s;animation-delay:-4.13s"><circle class="glow" cx="971" cy="440.6" r="33.2" fill="url(#sproutGlow)" style="animation-duration:5.85s;animation-delay:-4.13s"/><path d="M971,464 C971,456.2 971,452.3 971,448.4" stroke="#5FA56B" stroke-width="2.3" fill="none"/><path d="M971,458.1 C961.2,454.2 957.4,460.1 955.4,462.1 C963.2,464.0 968.1,462.1 971,458.1 Z" fill="#6DB879"/><path d="M971,455.2 C980.8,450.4 984.6,456.2 987.6,458.1 C979.8,461.1 973.9,459.1 971,455.2 Z" fill="#6DB879"/><rect class="head" x="958.3" y="429.9" width="25.4" height="18.5" rx="3.9" stroke-width="1.7" style="animation-duration:5.85s;animation-delay:-4.13s"/><text class="cur" x="962.2" y="443.2" font-family="ui-monospace,Menlo,monospace" font-size="9.8" style="animation-duration:5.85s;animation-delay:-4.13s">&gt;_</text></g>
<g class="sp off" style="animation-duration:7.43s;animation-delay:-2.58s"><circle class="glow" cx="175" cy="464.4" r="39.1" fill="url(#sproutGlow)" style="animation-duration:7.43s;animation-delay:-2.58s"/><path d="M175,492 C175,482.8 175,478.2 175,473.6" stroke="#5FA56B" stroke-width="2.8" fill="none"/><path d="M175,485.1 C163.5,480.5 158.9,487.4 156.6,489.7 C165.8,492.0 171.6,489.7 175,485.1 Z" fill="#6DB879"/><path d="M175,481.6 C186.5,475.9 191.1,482.8 194.6,485.1 C185.3,488.6 178.4,486.2 175,481.6 Z" fill="#6DB879"/><rect class="head" x="160.1" y="451.8" width="29.9" height="21.9" rx="4.6" stroke-width="2.0" style="animation-duration:7.43s;animation-delay:-2.58s"/><text class="cur" x="164.7" y="467.5" font-family="ui-monospace,Menlo,monospace" font-size="11.5" style="animation-duration:7.43s;animation-delay:-2.58s">&gt;_</text></g>
<g class="sp on" style="animation-duration:3.11s;animation-delay:-0.22s"><circle class="glow" cx="291" cy="464.4" r="39.1" fill="url(#sproutGlow)" style="animation-duration:3.11s;animation-delay:-0.22s"/><path d="M291,492 C291,482.8 291,478.2 291,473.6" stroke="#5FA56B" stroke-width="2.8" fill="none"/><path d="M291,485.1 C279.5,480.5 274.9,487.4 272.6,489.7 C281.8,492.0 287.6,489.7 291,485.1 Z" fill="#6DB879"/><path d="M291,481.6 C302.5,475.9 307.1,482.8 310.6,485.1 C301.4,488.6 294.4,486.2 291,481.6 Z" fill="#6DB879"/><rect class="head" x="276.1" y="451.8" width="29.9" height="21.9" rx="4.6" stroke-width="2.0" style="animation-duration:3.11s;animation-delay:-0.22s"/><text class="cur" x="280.7" y="467.5" font-family="ui-monospace,Menlo,monospace" font-size="11.5" style="animation-duration:3.11s;animation-delay:-0.22s">&gt;_</text></g>
<g class="sp off" style="animation-duration:6.53s;animation-delay:-1.07s"><circle class="glow" cx="407" cy="464.4" r="39.1" fill="url(#sproutGlow)" style="animation-duration:6.53s;animation-delay:-1.07s"/><path d="M407,492 C407,482.8 407,478.2 407,473.6" stroke="#5FA56B" stroke-width="2.8" fill="none"/><path d="M407,485.1 C395.5,480.5 390.9,487.4 388.6,489.7 C397.8,492.0 403.6,489.7 407,485.1 Z" fill="#6DB879"/><path d="M407,481.6 C418.5,475.9 423.1,482.8 426.6,485.1 C417.4,488.6 410.4,486.2 407,481.6 Z" fill="#6DB879"/><rect class="head" x="392.1" y="451.8" width="29.9" height="21.9" rx="4.6" stroke-width="2.0" style="animation-duration:6.53s;animation-delay:-1.07s"/><text class="cur" x="396.7" y="467.5" font-family="ui-monospace,Menlo,monospace" font-size="11.5" style="animation-duration:6.53s;animation-delay:-1.07s">&gt;_</text></g>
<g class="sp on" style="animation-duration:5.88s;animation-delay:-5.12s"><circle class="glow" cx="524" cy="464.4" r="39.1" fill="url(#sproutGlow)" style="animation-duration:5.88s;animation-delay:-5.12s"/><path d="M524,492 C524,482.8 524,478.2 524,473.6" stroke="#5FA56B" stroke-width="2.8" fill="none"/><path d="M524,485.1 C512.5,480.5 507.9,487.4 505.6,489.7 C514.8,492.0 520.5,489.7 524,485.1 Z" fill="#6DB879"/><path d="M524,481.6 C535.5,475.9 540.1,482.8 543.5,485.1 C534.4,488.6 527.5,486.2 524,481.6 Z" fill="#6DB879"/><rect class="head" x="509.1" y="451.8" width="29.9" height="21.9" rx="4.6" stroke-width="2.0" style="animation-duration:5.88s;animation-delay:-5.12s"/><text class="cur" x="513.6" y="467.5" font-family="ui-monospace,Menlo,monospace" font-size="11.5" style="animation-duration:5.88s;animation-delay:-5.12s">&gt;_</text></g>
<g class="sp off" style="animation-duration:6.69s;animation-delay:-1.62s"><circle class="glow" cx="640" cy="464.4" r="39.1" fill="url(#sproutGlow)" style="animation-duration:6.69s;animation-delay:-1.62s"/><path d="M640,492 C640,482.8 640,478.2 640,473.6" stroke="#5FA56B" stroke-width="2.8" fill="none"/><path d="M640,485.1 C628.5,480.5 623.9,487.4 621.6,489.7 C630.8,492.0 636.5,489.7 640,485.1 Z" fill="#6DB879"/><path d="M640,481.6 C651.5,475.9 656.1,482.8 659.5,485.1 C650.4,488.6 643.5,486.2 640,481.6 Z" fill="#6DB879"/><rect class="head" x="625.0" y="451.8" width="29.9" height="21.9" rx="4.6" stroke-width="2.0" style="animation-duration:6.69s;animation-delay:-1.62s"/><text class="cur" x="629.6" y="467.5" font-family="ui-monospace,Menlo,monospace" font-size="11.5" style="animation-duration:6.69s;animation-delay:-1.62s">&gt;_</text></g>
<g class="sp on" style="animation-duration:4.39s;animation-delay:-0.69s"><circle class="glow" cx="756" cy="464.4" r="39.1" fill="url(#sproutGlow)" style="animation-duration:4.39s;animation-delay:-0.69s"/><path d="M756,492 C756,482.8 756,478.2 756,473.6" stroke="#5FA56B" stroke-width="2.8" fill="none"/><path d="M756,485.1 C744.5,480.5 739.9,487.4 737.6,489.7 C746.8,492.0 752.5,489.7 756,485.1 Z" fill="#6DB879"/><path d="M756,481.6 C767.5,475.9 772.1,482.8 775.5,485.1 C766.4,488.6 759.5,486.2 756,481.6 Z" fill="#6DB879"/><rect class="head" x="741.0" y="451.8" width="29.9" height="21.9" rx="4.6" stroke-width="2.0" style="animation-duration:4.39s;animation-delay:-0.69s"/><text class="cur" x="745.6" y="467.5" font-family="ui-monospace,Menlo,monospace" font-size="11.5" style="animation-duration:4.39s;animation-delay:-0.69s">&gt;_</text></g>
<g class="sp on" style="animation-duration:3.63s;animation-delay:-3.49s"><circle class="glow" cx="873" cy="464.4" r="39.1" fill="url(#sproutGlow)" style="animation-duration:3.63s;animation-delay:-3.49s"/><path d="M873,492 C873,482.8 873,478.2 873,473.6" stroke="#5FA56B" stroke-width="2.8" fill="none"/><path d="M873,485.1 C861.5,480.5 856.9,487.4 854.6,489.7 C863.8,492.0 869.5,489.7 873,485.1 Z" fill="#6DB879"/><path d="M873,481.6 C884.5,475.9 889.1,482.8 892.5,485.1 C883.4,488.6 876.5,486.2 873,481.6 Z" fill="#6DB879"/><rect class="head" x="858.0" y="451.8" width="29.9" height="21.9" rx="4.6" stroke-width="2.0" style="animation-duration:3.63s;animation-delay:-3.49s"/><text class="cur" x="862.6" y="467.5" font-family="ui-monospace,Menlo,monospace" font-size="11.5" style="animation-duration:3.63s;animation-delay:-3.49s">&gt;_</text></g>
<g class="sp off" style="animation-duration:8.28s;animation-delay:-2.02s"><circle class="glow" cx="989" cy="464.4" r="39.1" fill="url(#sproutGlow)" style="animation-duration:8.28s;animation-delay:-2.02s"/><path d="M989,492 C989,482.8 989,478.2 989,473.6" stroke="#5FA56B" stroke-width="2.8" fill="none"/><path d="M989,485.1 C977.5,480.5 972.9,487.4 970.6,489.7 C979.8,492.0 985.5,489.7 989,485.1 Z" fill="#6DB879"/><path d="M989,481.6 C1000.5,475.9 1005.1,482.8 1008.5,485.1 C999.4,488.6 992.5,486.2 989,481.6 Z" fill="#6DB879"/><rect class="head" x="974.0" y="451.8" width="29.9" height="21.9" rx="4.6" stroke-width="2.0" style="animation-duration:8.28s;animation-delay:-2.02s"/><text class="cur" x="978.6" y="467.5" font-family="ui-monospace,Menlo,monospace" font-size="11.5" style="animation-duration:8.28s;animation-delay:-2.02s">&gt;_</text></g>
<g class="sp off" style="animation-duration:6.86s;animation-delay:-2.45s"><circle class="glow" cx="1105" cy="464.4" r="39.1" fill="url(#sproutGlow)" style="animation-duration:6.86s;animation-delay:-2.45s"/><path d="M1105,492 C1105,482.8 1105,478.2 1105,473.6" stroke="#5FA56B" stroke-width="2.8" fill="none"/><path d="M1105,485.1 C1093.5,480.5 1088.9,487.4 1086.6,489.7 C1095.8,492.0 1101.5,489.7 1105,485.1 Z" fill="#6DB879"/><path d="M1105,481.6 C1116.5,475.9 1121.1,482.8 1124.5,485.1 C1115.3,488.6 1108.5,486.2 1105,481.6 Z" fill="#6DB879"/><rect class="head" x="1090.0" y="451.8" width="29.9" height="21.9" rx="4.6" stroke-width="2.0" style="animation-duration:6.86s;animation-delay:-2.45s"/><text class="cur" x="1094.6" y="467.5" font-family="ui-monospace,Menlo,monospace" font-size="11.5" style="animation-duration:6.86s;animation-delay:-2.45s">&gt;_</text></g>
<g class="sp on" style="animation-duration:4.09s;animation-delay:-1.94s"><circle class="glow" cx="21" cy="491.6" r="45.9" fill="url(#sproutGlow)" style="animation-duration:4.09s;animation-delay:-1.94s"/><path d="M21,524 C21,513.2 21,507.8 21,502.4" stroke="#5FA56B" stroke-width="3.2" fill="none"/><path d="M21,515.9 C7.5,510.5 2.1,518.6 -0.6,521.3 C10.2,524.0 16.9,521.3 21,515.9 Z" fill="#6DB879"/><path d="M21,511.9 C34.5,505.1 39.9,513.2 44.0,515.9 C33.1,520.0 25.1,517.2 21,511.9 Z" fill="#6DB879"/><rect class="head" x="3.5" y="476.8" width="35.1" height="25.6" rx="5.4" stroke-width="2.3" style="animation-duration:4.09s;animation-delay:-1.94s"/><text class="cur" x="8.9" y="495.2" font-family="ui-monospace,Menlo,monospace" font-size="13.5" style="animation-duration:4.09s;animation-delay:-1.94s">&gt;_</text></g>
<g class="sp on" style="animation-duration:3.38s;animation-delay:-1.71s"><circle class="glow" cx="176" cy="491.6" r="45.9" fill="url(#sproutGlow)" style="animation-duration:3.38s;animation-delay:-1.71s"/><path d="M176,524 C176,513.2 176,507.8 176,502.4" stroke="#5FA56B" stroke-width="3.2" fill="none"/><path d="M176,515.9 C162.5,510.5 157.1,518.6 154.4,521.3 C165.2,524.0 171.9,521.3 176,515.9 Z" fill="#6DB879"/><path d="M176,511.9 C189.5,505.1 194.9,513.2 198.9,515.9 C188.2,520.0 180.1,517.2 176,511.9 Z" fill="#6DB879"/><rect class="head" x="158.4" y="476.8" width="35.1" height="25.6" rx="5.4" stroke-width="2.3" style="animation-duration:3.38s;animation-delay:-1.71s"/><text class="cur" x="163.8" y="495.2" font-family="ui-monospace,Menlo,monospace" font-size="13.5" style="animation-duration:3.38s;animation-delay:-1.71s">&gt;_</text></g>
<g class="sp on" style="animation-duration:3.63s;animation-delay:-0.33s"><circle class="glow" cx="330" cy="491.6" r="45.9" fill="url(#sproutGlow)" style="animation-duration:3.63s;animation-delay:-0.33s"/><path d="M330,524 C330,513.2 330,507.8 330,502.4" stroke="#5FA56B" stroke-width="3.2" fill="none"/><path d="M330,515.9 C316.5,510.5 311.1,518.6 308.4,521.3 C319.2,524.0 325.9,521.3 330,515.9 Z" fill="#6DB879"/><path d="M330,511.9 C343.5,505.1 348.9,513.2 352.9,515.9 C342.1,520.0 334.1,517.2 330,511.9 Z" fill="#6DB879"/><rect class="head" x="312.4" y="476.8" width="35.1" height="25.6" rx="5.4" stroke-width="2.3" style="animation-duration:3.63s;animation-delay:-0.33s"/><text class="cur" x="317.8" y="495.2" font-family="ui-monospace,Menlo,monospace" font-size="13.5" style="animation-duration:3.63s;animation-delay:-0.33s">&gt;_</text></g>
<g class="sp on" style="animation-duration:2.76s;animation-delay:-0.06s"><circle class="glow" cx="485" cy="491.6" r="45.9" fill="url(#sproutGlow)" style="animation-duration:2.76s;animation-delay:-0.06s"/><path d="M485,524 C485,513.2 485,507.8 485,502.4" stroke="#5FA56B" stroke-width="3.2" fill="none"/><path d="M485,515.9 C471.5,510.5 466.1,518.6 463.4,521.3 C474.2,524.0 480.9,521.3 485,515.9 Z" fill="#6DB879"/><path d="M485,511.9 C498.5,505.1 503.9,513.2 507.9,515.9 C497.1,520.0 489.1,517.2 485,511.9 Z" fill="#6DB879"/><rect class="head" x="467.4" y="476.8" width="35.1" height="25.6" rx="5.4" stroke-width="2.3" style="animation-duration:2.76s;animation-delay:-0.06s"/><text class="cur" x="472.8" y="495.2" font-family="ui-monospace,Menlo,monospace" font-size="13.5" style="animation-duration:2.76s;animation-delay:-0.06s">&gt;_</text></g>
<g class="sp on" style="animation-duration:3.51s;animation-delay:-2.05s"><circle class="glow" cx="640" cy="491.6" r="45.9" fill="url(#sproutGlow)" style="animation-duration:3.51s;animation-delay:-2.05s"/><path d="M640,524 C640,513.2 640,507.8 640,502.4" stroke="#5FA56B" stroke-width="3.2" fill="none"/><path d="M640,515.9 C626.5,510.5 621.1,518.6 618.4,521.3 C629.2,524.0 636.0,521.3 640,515.9 Z" fill="#6DB879"/><path d="M640,511.9 C653.5,505.1 658.9,513.2 663.0,515.9 C652.1,520.0 644.0,517.2 640,511.9 Z" fill="#6DB879"/><rect class="head" x="622.5" y="476.8" width="35.1" height="25.6" rx="5.4" stroke-width="2.3" style="animation-duration:3.51s;animation-delay:-2.05s"/><text class="cur" x="627.9" y="495.2" font-family="ui-monospace,Menlo,monospace" font-size="13.5" style="animation-duration:3.51s;animation-delay:-2.05s">&gt;_</text></g>
<g class="sp on" style="animation-duration:5.53s;animation-delay:-3.63s"><circle class="glow" cx="795" cy="491.6" r="45.9" fill="url(#sproutGlow)" style="animation-duration:5.53s;animation-delay:-3.63s"/><path d="M795,524 C795,513.2 795,507.8 795,502.4" stroke="#5FA56B" stroke-width="3.2" fill="none"/><path d="M795,515.9 C781.5,510.5 776.1,518.6 773.4,521.3 C784.2,524.0 791.0,521.3 795,515.9 Z" fill="#6DB879"/><path d="M795,511.9 C808.5,505.1 813.9,513.2 818.0,515.9 C807.1,520.0 799.0,517.2 795,511.9 Z" fill="#6DB879"/><rect class="head" x="777.5" y="476.8" width="35.1" height="25.6" rx="5.4" stroke-width="2.3" style="animation-duration:5.53s;animation-delay:-3.63s"/><text class="cur" x="782.9" y="495.2" font-family="ui-monospace,Menlo,monospace" font-size="13.5" style="animation-duration:5.53s;animation-delay:-3.63s">&gt;_</text></g>
<g class="sp off" style="animation-duration:10.27s;animation-delay:-4.00s"><circle class="glow" cx="950" cy="491.6" r="45.9" fill="url(#sproutGlow)" style="animation-duration:10.27s;animation-delay:-4.00s"/><path d="M950,524 C950,513.2 950,507.8 950,502.4" stroke="#5FA56B" stroke-width="3.2" fill="none"/><path d="M950,515.9 C936.5,510.5 931.1,518.6 928.4,521.3 C939.2,524.0 946.0,521.3 950,515.9 Z" fill="#6DB879"/><path d="M950,511.9 C963.5,505.1 968.9,513.2 973.0,515.9 C962.1,520.0 954.0,517.2 950,511.9 Z" fill="#6DB879"/><rect class="head" x="932.5" y="476.8" width="35.1" height="25.6" rx="5.4" stroke-width="2.3" style="animation-duration:10.27s;animation-delay:-4.00s"/><text class="cur" x="937.9" y="495.2" font-family="ui-monospace,Menlo,monospace" font-size="13.5" style="animation-duration:10.27s;animation-delay:-4.00s">&gt;_</text></g>
<g class="sp on" style="animation-duration:6.44s;animation-delay:-0.96s"><circle class="glow" cx="1104" cy="491.6" r="45.9" fill="url(#sproutGlow)" style="animation-duration:6.44s;animation-delay:-0.96s"/><path d="M1104,524 C1104,513.2 1104,507.8 1104,502.4" stroke="#5FA56B" stroke-width="3.2" fill="none"/><path d="M1104,515.9 C1090.5,510.5 1085.1,518.6 1082.4,521.3 C1093.2,524.0 1100.0,521.3 1104,515.9 Z" fill="#6DB879"/><path d="M1104,511.9 C1117.5,505.1 1122.9,513.2 1127.0,515.9 C1116.2,520.0 1108.0,517.2 1104,511.9 Z" fill="#6DB879"/><rect class="head" x="1086.5" y="476.8" width="35.1" height="25.6" rx="5.4" stroke-width="2.3" style="animation-duration:6.44s;animation-delay:-0.96s"/><text class="cur" x="1091.9" y="495.2" font-family="ui-monospace,Menlo,monospace" font-size="13.5" style="animation-duration:6.44s;animation-delay:-0.96s">&gt;_</text></g>
<g class="sp off" style="animation-duration:8.86s;animation-delay:-0.39s"><circle class="glow" cx="1259" cy="491.6" r="45.9" fill="url(#sproutGlow)" style="animation-duration:8.86s;animation-delay:-0.39s"/><path d="M1259,524 C1259,513.2 1259,507.8 1259,502.4" stroke="#5FA56B" stroke-width="3.2" fill="none"/><path d="M1259,515.9 C1245.5,510.5 1240.1,518.6 1237.4,521.3 C1248.2,524.0 1255.0,521.3 1259,515.9 Z" fill="#6DB879"/><path d="M1259,511.9 C1272.5,505.1 1277.9,513.2 1282.0,515.9 C1271.2,520.0 1263.0,517.2 1259,511.9 Z" fill="#6DB879"/><rect class="head" x="1241.5" y="476.8" width="35.1" height="25.6" rx="5.4" stroke-width="2.3" style="animation-duration:8.86s;animation-delay:-0.39s"/><text class="cur" x="1246.9" y="495.2" font-family="ui-monospace,Menlo,monospace" font-size="13.5" style="animation-duration:8.86s;animation-delay:-0.39s">&gt;_</text></g>
<g class="sp off" style="animation-duration:10.35s;animation-delay:-6.49s"><circle class="glow" cx="46" cy="522.2" r="53.5" fill="url(#sproutGlow)" style="animation-duration:10.35s;animation-delay:-6.49s"/><path d="M46,560 C46,547.4 46,541.1 46,534.8" stroke="#5FA56B" stroke-width="3.8" fill="none"/><path d="M46,550.5 C30.2,544.2 23.9,553.7 20.8,556.9 C33.4,560.0 41.3,556.9 46,550.5 Z" fill="#6DB879"/><path d="M46,545.8 C61.8,538.0 68.0,547.4 72.8,550.5 C60.2,555.3 50.7,552.1 46,545.8 Z" fill="#6DB879"/><rect class="head" x="25.5" y="504.9" width="40.9" height="29.9" rx="6.3" stroke-width="2.7" style="animation-duration:10.35s;animation-delay:-6.49s"/><text class="cur" x="31.8" y="526.5" font-family="ui-monospace,Menlo,monospace" font-size="15.8" style="animation-duration:10.35s;animation-delay:-6.49s">&gt;_</text></g>
<g class="sp off" style="animation-duration:9.87s;animation-delay:-1.38s"><circle class="glow" cx="244" cy="522.2" r="53.5" fill="url(#sproutGlow)" style="animation-duration:9.87s;animation-delay:-1.38s"/><path d="M244,560 C244,547.4 244,541.1 244,534.8" stroke="#5FA56B" stroke-width="3.8" fill="none"/><path d="M244,550.5 C228.2,544.2 221.9,553.7 218.8,556.9 C231.4,560.0 239.3,556.9 244,550.5 Z" fill="#6DB879"/><path d="M244,545.8 C259.8,538.0 266.1,547.4 270.8,550.5 C258.2,555.3 248.7,552.1 244,545.8 Z" fill="#6DB879"/><rect class="head" x="223.5" y="504.9" width="40.9" height="29.9" rx="6.3" stroke-width="2.7" style="animation-duration:9.87s;animation-delay:-1.38s"/><text class="cur" x="229.8" y="526.5" font-family="ui-monospace,Menlo,monospace" font-size="15.8" style="animation-duration:9.87s;animation-delay:-1.38s">&gt;_</text></g>
<g class="sp on" style="animation-duration:4.57s;animation-delay:-3.81s"><circle class="glow" cx="442" cy="522.2" r="53.5" fill="url(#sproutGlow)" style="animation-duration:4.57s;animation-delay:-3.81s"/><path d="M442,560 C442,547.4 442,541.1 442,534.8" stroke="#5FA56B" stroke-width="3.8" fill="none"/><path d="M442,550.5 C426.2,544.2 419.9,553.7 416.8,556.9 C429.4,560.0 437.3,556.9 442,550.5 Z" fill="#6DB879"/><path d="M442,545.8 C457.8,538.0 464.1,547.4 468.8,550.5 C456.2,555.3 446.7,552.1 442,545.8 Z" fill="#6DB879"/><rect class="head" x="421.5" y="504.9" width="40.9" height="29.9" rx="6.3" stroke-width="2.7" style="animation-duration:4.57s;animation-delay:-3.81s"/><text class="cur" x="427.8" y="526.5" font-family="ui-monospace,Menlo,monospace" font-size="15.8" style="animation-duration:4.57s;animation-delay:-3.81s">&gt;_</text></g>
<g class="sp off" style="animation-duration:9.96s;animation-delay:-5.82s"><circle class="glow" cx="640" cy="522.2" r="53.5" fill="url(#sproutGlow)" style="animation-duration:9.96s;animation-delay:-5.82s"/><path d="M640,560 C640,547.4 640,541.1 640,534.8" stroke="#5FA56B" stroke-width="3.8" fill="none"/><path d="M640,550.5 C624.2,544.2 618.0,553.7 614.8,556.9 C627.4,560.0 635.3,556.9 640,550.5 Z" fill="#6DB879"/><path d="M640,545.8 C655.8,538.0 662.0,547.4 666.8,550.5 C654.2,555.3 644.7,552.1 640,545.8 Z" fill="#6DB879"/><rect class="head" x="619.5" y="504.9" width="40.9" height="29.9" rx="6.3" stroke-width="2.7" style="animation-duration:9.96s;animation-delay:-5.82s"/><text class="cur" x="625.8" y="526.5" font-family="ui-monospace,Menlo,monospace" font-size="15.8" style="animation-duration:9.96s;animation-delay:-5.82s">&gt;_</text></g>
<g class="sp off" style="animation-duration:9.10s;animation-delay:-6.31s"><circle class="glow" cx="838" cy="522.2" r="53.5" fill="url(#sproutGlow)" style="animation-duration:9.10s;animation-delay:-6.31s"/><path d="M838,560 C838,547.4 838,541.1 838,534.8" stroke="#5FA56B" stroke-width="3.8" fill="none"/><path d="M838,550.5 C822.2,544.2 816.0,553.7 812.8,556.9 C825.4,560.0 833.3,556.9 838,550.5 Z" fill="#6DB879"/><path d="M838,545.8 C853.8,538.0 860.0,547.4 864.8,550.5 C852.2,555.3 842.7,552.1 838,545.8 Z" fill="#6DB879"/><rect class="head" x="817.5" y="504.9" width="40.9" height="29.9" rx="6.3" stroke-width="2.7" style="animation-duration:9.10s;animation-delay:-6.31s"/><text class="cur" x="823.8" y="526.5" font-family="ui-monospace,Menlo,monospace" font-size="15.8" style="animation-duration:9.10s;animation-delay:-6.31s">&gt;_</text></g>
<g class="sp on" style="animation-duration:2.72s;animation-delay:-0.36s"><circle class="glow" cx="1036" cy="522.2" r="53.5" fill="url(#sproutGlow)" style="animation-duration:2.72s;animation-delay:-0.36s"/><path d="M1036,560 C1036,547.4 1036,541.1 1036,534.8" stroke="#5FA56B" stroke-width="3.8" fill="none"/><path d="M1036,550.5 C1020.2,544.2 1014.0,553.7 1010.8,556.9 C1023.4,560.0 1031.3,556.9 1036,550.5 Z" fill="#6DB879"/><path d="M1036,545.8 C1051.8,538.0 1058.0,547.4 1062.8,550.5 C1050.2,555.3 1040.7,552.1 1036,545.8 Z" fill="#6DB879"/><rect class="head" x="1015.5" y="504.9" width="40.9" height="29.9" rx="6.3" stroke-width="2.7" style="animation-duration:2.72s;animation-delay:-0.36s"/><text class="cur" x="1021.8" y="526.5" font-family="ui-monospace,Menlo,monospace" font-size="15.8" style="animation-duration:2.72s;animation-delay:-0.36s">&gt;_</text></g>
<g class="sp on" style="animation-duration:3.01s;animation-delay:-2.52s"><circle class="glow" cx="1234" cy="522.2" r="53.5" fill="url(#sproutGlow)" style="animation-duration:3.01s;animation-delay:-2.52s"/><path d="M1234,560 C1234,547.4 1234,541.1 1234,534.8" stroke="#5FA56B" stroke-width="3.8" fill="none"/><path d="M1234,550.5 C1218.2,544.2 1212.0,553.7 1208.8,556.9 C1221.4,560.0 1229.3,556.9 1234,550.5 Z" fill="#6DB879"/><path d="M1234,545.8 C1249.8,538.0 1256.0,547.4 1260.8,550.5 C1248.2,555.3 1238.7,552.1 1234,545.8 Z" fill="#6DB879"/><rect class="head" x="1213.5" y="504.9" width="40.9" height="29.9" rx="6.3" stroke-width="2.7" style="animation-duration:3.01s;animation-delay:-2.52s"/><text class="cur" x="1219.8" y="526.5" font-family="ui-monospace,Menlo,monospace" font-size="15.8" style="animation-duration:3.01s;animation-delay:-2.52s">&gt;_</text></g>
<g font-family="-apple-system,BlinkMacSystemFont,'Segoe UI',Inter,Helvetica,Arial,sans-serif">
<text x="72" y="128" font-size="78" font-weight="800" fill="#F7EFE4" letter-spacing="-1.5">clod<tspan fill="#E8875B">farm</tspan></text>
<text x="76" y="176" font-size="24" fill="#C9CEE0">A farm of Claude Code agents. Plant a mission, harvest the work.</text>
<text x="76" y="210" font-size="17" fill="#8E97B5">Remote Control · sub-agents · one queue · a budget per seat</text>
</g>
</g></svg>